<svg width="574.9600097656249px" height="144.839990234375px" xmlns="http://www.w3.org/2000/svg" viewBox="-37.480004882812466 2.580004882812503 574.9600097656249 144.839990234375" style="background: none;" preserveAspectRatio="xMidYMid"><defs><linearGradient id="editing-outline-gradient" x1="0.44766404375705604" x2="0.552335956242944" y1="1.4986295347545737" y2="-0.49862953475457383"><stop offset="0" stop-color="#f6f6f6"></stop><stop offset="1" stop-color="#ffffff"></stop></linearGradient><filter id="editing-outline" x="-100%" y="-100%" width="300%" height="300%"><feMorphology in="SourceGraphic" operator="dilate" radius="2" result="outline"></feMorphology><feComposite operator="out" in="outline" in2="SourceAlpha"></feComposite></filter></defs><g filter="url(#editing-outline)"><g transform="translate(44.629995346069336, 101.2549991607666)"><path d="M6.74 0L6.74-52.51L45.01-52.51L45.01-45.01L14.25-45.01L14.25-29.99L40.50-29.99L40.50-22.49L14.25-22.49L14.25-7.51L45.01-7.51L45.01 0L6.74 0ZM55.52-7.21L55.52-39.00L62.70-39.00L62.70-7.21L82.80-7.21L82.80-39.00L90.01-39.00L90.01 0L82.80 0L82.80-6.59L82.80-6.59Q82.69-5.24 82.07-4.03L82.07-4.03L82.07-4.03Q81.45-2.82 80.47-1.92L80.47-1.92L80.47-1.92Q79.50-1.03 78.26-0.51L78.26-0.51L78.26-0.51Q77.01 0 75.62 0L75.62 0L62.70 0L62.70 0Q61.23 0 59.91-0.57L59.91-0.57L59.91-0.57Q58.59-1.14 57.62-2.11L57.62-2.11L57.62-2.11Q56.65-3.08 56.09-4.39L56.09-4.39L56.09-4.39Q55.52-5.71 55.52-7.21L55.52-7.21ZM124.07-31.79L109.20-31.79L109.20 0L102.03 0L102.03-39.00L109.20-39.00L109.20-32.12L109.20-32.12Q109.28-33.54 109.86-34.81L109.86-34.81L109.86-34.81Q110.45-36.07 111.42-37.01L111.42-37.01L111.42-37.01Q112.39-37.94 113.67-38.47L113.67-38.47L113.67-38.47Q114.95-39.00 116.42-39.00L116.42-39.00L124.07-39.00L124.07-39.00Q125.57-39.00 126.87-38.43L126.87-38.43L126.87-38.43Q128.17-37.87 129.16-36.90L129.16-36.90L129.16-36.90Q130.15-35.93 130.72-34.61L130.72-34.61L130.72-34.61Q131.29-33.29 131.29-31.79L131.29-31.79L131.29-25.20L124.07-25.20L124.07-31.79ZM173.99-31.79L173.99-7.21L173.99-7.21Q173.99-5.71 173.42-4.39L173.42-4.39L173.42-4.39Q172.85-3.08 171.88-2.11L171.88-2.11L171.88-2.11Q170.91-1.14 169.61-0.57L169.61-0.57L169.61-0.57Q168.31 0 166.81 0L166.81 0L147.44 0L147.44 0Q145.97 0 144.65-0.57L144.65-0.57L144.65-0.57Q143.33-1.14 142.36-2.11L142.36-2.11L142.36-2.11Q141.39-3.08 140.83-4.39L140.83-4.39L140.83-4.39Q140.26-5.71 140.26-7.21L140.26-7.21L140.26-31.79L140.26-31.79Q140.26-33.29 140.83-34.61L140.83-34.61L140.83-34.61Q141.39-35.93 142.36-36.90L142.36-36.90L142.36-36.90Q143.33-37.87 144.65-38.43L144.65-38.43L144.65-38.43Q145.97-39.00 147.44-39.00L147.44-39.00L166.81-39.00L166.81-39.00Q168.31-39.00 169.61-38.43L169.61-38.43L169.61-38.43Q170.91-37.87 171.88-36.90L171.88-36.90L171.88-36.90Q172.85-35.93 173.42-34.61L173.42-34.61L173.42-34.61Q173.99-33.29 173.99-31.79L173.99-31.79ZM166.81-31.79L147.44-31.79L147.44-7.21L166.81-7.21L166.81-31.79ZM239.76-45.01L215.99-45.01L215.99-38.23L208.48-38.23L208.48-45.01L208.48-45.01Q208.48-46.55 209.07-47.92L209.07-47.92L209.07-47.92Q209.66-49.29 210.68-50.30L210.68-50.30L210.68-50.30Q211.71-51.31 213.08-51.91L213.08-51.91L213.08-51.91Q214.45-52.51 215.99-52.51L215.99-52.51L239.76-52.51L239.76-52.51Q241.30-52.51 242.67-51.91L242.67-51.91L242.67-51.91Q244.04-51.31 245.05-50.30L245.05-50.30L245.05-50.30Q246.06-49.29 246.66-47.92L246.66-47.92L246.66-47.92Q247.27-46.55 247.27-45.01L247.27-45.01L247.27-35.41L247.27-35.41Q247.27-33.87 246.97-32.67L246.97-32.67L246.97-32.67Q246.68-31.46 246.04-30.49L246.04-30.49L246.04-30.49Q245.40-29.52 244.41-28.75L244.41-28.75L244.41-28.75Q243.42-27.98 241.99-27.28L241.99-27.28L215.99-15.09L215.99-7.51L240.71-7.51L240.71-14.25L248.22-14.25L248.22 0L208.48 0L208.48-13.81L208.48-13.81Q208.48-15.34 208.80-16.55L208.80-16.55L208.80-16.55Q209.11-17.76 209.73-18.71L209.73-18.71L209.73-18.71Q210.35-19.67 211.36-20.45L211.36-20.45L211.36-20.45Q212.37-21.24 213.72-21.90L213.72-21.90L239.76-34.13L239.76-45.01ZM302.23-45.01L302.23-7.51L302.23-7.51Q302.23-5.97 301.65-4.60L301.65-4.60L301.65-4.60Q301.06-3.22 300.04-2.20L300.04-2.20L300.04-2.20Q299.01-1.17 297.64-0.59L297.64-0.59L297.64-0.59Q296.26 0 294.73 0L294.73 0L268.47 0L268.47 0Q266.93 0 265.56-0.59L265.56-0.59L265.56-0.59Q264.18-1.17 263.16-2.20L263.16-2.20L263.16-2.20Q262.13-3.22 261.55-4.60L261.55-4.60L261.55-4.60Q260.96-5.97 260.96-7.51L260.96-7.51L260.96-45.01L260.96-45.01Q260.96-46.55 261.55-47.92L261.55-47.92L261.55-47.92Q262.13-49.29 263.16-50.30L263.16-50.30L263.16-50.30Q264.18-51.31 265.56-51.91L265.56-51.91L265.56-51.91Q266.93-52.51 268.47-52.51L268.47-52.51L294.73-52.51L294.73-52.51Q296.26-52.51 297.64-51.91L297.64-51.91L297.64-51.91Q299.01-51.31 300.04-50.30L300.04-50.30L300.04-50.30Q301.06-49.29 301.65-47.92L301.65-47.92L301.65-47.92Q302.23-46.55 302.23-45.01L302.23-45.01ZM294.73-45.01L268.47-45.01L268.47-7.51L294.73-7.51L294.73-45.01ZM346.25-45.01L322.49-45.01L322.49-38.23L314.98-38.23L314.98-45.01L314.98-45.01Q314.98-46.55 315.56-47.92L315.56-47.92L315.56-47.92Q316.15-49.29 317.18-50.30L317.18-50.30L317.18-50.30Q318.20-51.31 319.57-51.91L319.57-51.91L319.57-51.91Q320.95-52.51 322.49-52.51L322.49-52.51L346.25-52.51L346.25-52.51Q347.79-52.51 349.16-51.91L349.16-51.91L349.16-51.91Q350.54-51.31 351.54-50.30L351.54-50.30L351.54-50.30Q352.55-49.29 353.16-47.92L353.16-47.92L353.16-47.92Q353.76-46.55 353.76-45.01L353.76-45.01L353.76-35.41L353.76-35.41Q353.76-33.87 353.47-32.67L353.47-32.67L353.47-32.67Q353.17-31.46 352.53-30.49L352.53-30.49L352.53-30.49Q351.89-29.52 350.90-28.75L350.90-28.75L350.90-28.75Q349.91-27.98 348.49-27.28L348.49-27.28L322.49-15.09L322.49-7.51L347.20-7.51L347.20-14.25L354.71-14.25L354.71 0L314.98 0L314.98-13.81L314.98-13.81Q314.98-15.34 315.29-16.55L315.29-16.55L315.29-16.55Q315.60-17.76 316.22-18.71L316.22-18.71L316.22-18.71Q316.85-19.67 317.85-20.45L317.85-20.45L317.85-20.45Q318.86-21.24 320.21-21.90L320.21-21.90L346.25-34.13L346.25-45.01ZM362.22-10.88L362.22-18.09L388.11-52.51L396.94-52.51L396.94-18.09L404.00-18.09L404.00-10.88L396.94-10.88L396.94 0L389.43 0L389.43-10.88L362.22-10.88ZM370.39-18.09L389.43-18.09L389.43-43.43L370.39-18.09Z" fill="url(#editing-outline-gradient)"></path></g></g><style>text {
  font-size: 64px;
  font-family: Arial Black;
  dominant-baseline: central;
  text-anchor: middle;
}</style></svg>